<?xml version="1.0" encoding="iso-8859-1"?>
<!-- Generator: Adobe Illustrator 19.0.0, SVG Export Plug-In . SVG Version: 6.00 Build 0)  -->
<svg version="1.1" id="Capa_1" xmlns="http://www.w3.org/2000/svg" xmlns:xlink="http://www.w3.org/1999/xlink" x="0px" y="0px"
	 viewBox="0 0 53.807 53.807" style="enable-background:new 0 0 53.807 53.807;" xml:space="preserve">
<g>
	<path d="M53.461,33.721l-10.807-9.333c-0.297-0.257-0.716-0.315-1.07-0.152C41.228,24.398,41,24.753,41,25.144v7.851H13
		c-6.065,0-11-4.935-11-11s4.935-11,11-11h9v-2H12v0.051C5.299,9.56,0,15.165,0,21.996s5.299,12.435,12,12.949v0.051h29v8.816
		c0,0.391,0.228,0.747,0.584,0.909c0.133,0.061,0.275,0.091,0.416,0.091c0.235,0,0.468-0.083,0.654-0.243l10.807-9.333
		c0.22-0.19,0.346-0.466,0.346-0.757S53.681,33.911,53.461,33.721z M43,41.627V27.33l8.277,7.148L43,41.627z"/>
</g>
<g>
</g>
<g>
</g>
<g>
</g>
<g>
</g>
<g>
</g>
<g>
</g>
<g>
</g>
<g>
</g>
<g>
</g>
<g>
</g>
<g>
</g>
<g>
</g>
<g>
</g>
<g>
</g>
<g>
</g>
</svg>
